<svg xmlns="http://www.w3.org/2000/svg" viewBox="0 0 256 177" width="256" height="177">
	<style>
		tspan { white-space:pre }
		.shp0 { fill: #000000 } 
	</style>
	<path id="Path 0" class="shp0" d="M196.5 2.44C193.75 3.75 189.56 6.99 187.19 9.66C184.53 12.64 182.33 16.42 181.43 19.5C180.63 22.25 179.98 26.07 179.98 28C179.98 29.93 180.72 33.98 181.63 37C182.86 41.1 184.58 43.8 188.39 47.61C192.2 51.42 194.9 53.14 199 54.37C202.03 55.28 206.07 56.02 208 56.02C209.93 56.02 213.97 55.28 217 54.37C221.1 53.14 223.8 51.42 227.61 47.61C231.42 43.8 233.14 41.1 234.37 37C235.28 33.98 236.02 29.93 236.02 28C236.02 26.07 235.37 22.25 234.57 19.5C233.67 16.42 231.46 12.64 228.81 9.65C226.27 6.8 222.35 3.82 219.25 2.4C215.44 0.66 212.29 0.01 207.75 0.04C203.31 0.06 200.06 0.76 196.5 2.44ZM46.5 107.14C21.75 144.04 1.39 174.85 1.25 175.61C1.04 176.79 20.26 177 128 177C197.85 177 255.02 176.66 255.04 176.25C255.06 175.84 240.2 155.25 222.02 130.5C203.84 105.75 188.64 85.37 188.23 85.21C187.83 85.04 180.64 92.58 172.25 101.96C163.86 111.33 156.55 119 156 119C155.45 119 141.02 101.34 123.94 79.75C106.86 58.16 92.58 40.4 92.19 40.28C91.81 40.16 71.25 70.25 46.5 107.14Z" />
</svg>